<svg width="1138" height="52" viewBox="0 0 1138 52" fill="none" xmlns="http://www.w3.org/2000/svg">
<g clip-path="url(#clip0_10_13)">
<path d="M65.3071 40.7401L67.8457 34.844C70.589 36.8913 74.2331 37.9558 77.8363 37.9558C80.4977 37.9558 82.1764 36.9322 82.1764 35.3763C82.1355 31.0362 66.2489 34.4346 66.126 23.5432C66.0851 18.0157 70.9985 13.7574 77.9591 13.7574C82.0945 13.7574 86.23 14.781 89.178 17.1149L86.8032 23.1338C84.1008 21.4141 80.7433 20.1858 77.5496 20.1858C75.3796 20.1858 73.9465 21.2094 73.9465 22.5196C73.9874 26.7779 89.9969 24.444 90.1607 34.844C90.1607 40.4944 85.3701 44.4661 78.4914 44.4661C73.4552 44.4661 68.8284 43.2787 65.3071 40.7401ZM162.715 32.7149C161.446 34.9259 159.071 36.4409 156.328 36.4409C152.274 36.4409 148.998 33.1653 148.998 29.1118C148.998 25.0582 152.274 21.7826 156.328 21.7826C159.071 21.7826 161.446 23.2976 162.715 25.5086L169.717 21.6188C167.096 16.9511 162.06 13.7574 156.328 13.7574C147.852 13.7574 140.973 20.6362 140.973 29.1118C140.973 37.5873 147.852 44.4661 156.328 44.4661C162.101 44.4661 167.096 41.3133 169.717 36.6047L162.715 32.7149V32.7149ZM93.6819 1.02356H102.444V43.8929H93.6819V1.02356ZM173.156 1.02356V43.8929H181.918V31.0362L192.318 43.8929H203.537L190.312 28.6204L202.554 14.3716H191.827L181.918 26.2047V1.02356H173.156ZM128.485 32.7968C127.216 34.885 124.595 36.4409 121.647 36.4409C117.594 36.4409 114.318 33.1653 114.318 29.1118C114.318 25.0582 117.594 21.7826 121.647 21.7826C124.595 21.7826 127.216 23.4204 128.485 25.5495V32.7968ZM128.485 14.3716V17.8519C127.052 15.4362 123.49 13.7574 119.764 13.7574C112.066 13.7574 106.006 20.5543 106.006 29.0708C106.006 37.5873 112.066 44.4661 119.764 44.4661C123.49 44.4661 127.052 42.7873 128.485 40.3716V43.8519H137.247V14.3716H128.485Z" fill="#798092"/>
<path d="M11.1371 32.7558C11.1371 35.7448 8.72134 38.1605 5.73236 38.1605C2.74338 38.1605 0.327637 35.7448 0.327637 32.7558C0.327637 29.7668 2.74338 27.3511 5.73236 27.3511H11.1371V32.7558ZM13.8394 32.7558C13.8394 29.7668 16.2552 27.3511 19.2442 27.3511C22.2331 27.3511 24.6489 29.7668 24.6489 32.7558V46.2676C24.6489 49.2566 22.2331 51.6723 19.2442 51.6723C16.2552 51.6723 13.8394 49.2566 13.8394 46.2676V32.7558Z" fill="#798092"/>
<path d="M19.2442 11.0551C16.2552 11.0551 13.8394 8.63931 13.8394 5.65033C13.8394 2.66135 16.2552 0.245605 19.2442 0.245605C22.2331 0.245605 24.6489 2.66135 24.6489 5.65033V11.0551H19.2442ZM19.2442 13.7984C22.2331 13.7984 24.6489 16.2141 24.6489 19.2031C24.6489 22.1921 22.2331 24.6078 19.2442 24.6078H5.69141C2.70243 24.6078 0.286682 22.1921 0.286682 19.2031C0.286682 16.2141 2.70243 13.7984 5.69141 13.7984H19.2442Z" fill="#798092"/>
<path d="M40.904 19.2031C40.904 16.2141 43.3198 13.7984 46.3087 13.7984C49.2977 13.7984 51.7135 16.2141 51.7135 19.2031C51.7135 22.1921 49.2977 24.6078 46.3087 24.6078H40.904V19.2031ZM38.2017 19.2031C38.2017 22.1921 35.7859 24.6078 32.7969 24.6078C29.808 24.6078 27.3922 22.1921 27.3922 19.2031V5.65033C27.3922 2.66135 29.808 0.245605 32.7969 0.245605C35.7859 0.245605 38.2017 2.66135 38.2017 5.65033V19.2031V19.2031Z" fill="#798092"/>
<path d="M32.7969 40.8629C35.7859 40.8629 38.2017 43.2786 38.2017 46.2676C38.2017 49.2566 35.7859 51.6723 32.7969 51.6723C29.808 51.6723 27.3922 49.2566 27.3922 46.2676V40.8629H32.7969ZM32.7969 38.1605C29.808 38.1605 27.3922 35.7448 27.3922 32.7558C27.3922 29.7668 29.808 27.3511 32.7969 27.3511H46.3497C49.3387 27.3511 51.7544 29.7668 51.7544 32.7558C51.7544 35.7448 49.3387 38.1605 46.3497 38.1605H32.7969Z" fill="#798092"/>
</g>
<g clip-path="url(#clip1_10_13)">
<path d="M409.944 29.9504L408.492 34.062H408.371C408.128 33.1349 407.685 31.724 406.958 30.031L399.169 10.4806H391.542V41.6403H396.587V22.4124C396.587 21.2031 396.587 19.8325 396.546 18.1395C396.506 17.293 396.425 16.648 396.385 16.1643H396.506C396.748 17.3736 397.031 18.2604 397.232 18.8248L406.595 41.5597H410.146L419.428 18.6232C419.63 18.0992 419.832 17.0511 420.033 16.1643H420.154C420.033 18.462 419.953 20.5178 419.912 21.7674V41.5194H425.28V10.4H417.935L409.944 29.9504V29.9504ZM430.365 19.1876H435.611V41.5194H430.365V19.1876ZM433.028 9.75501C432.14 9.75501 431.414 10.0775 430.808 10.6418C430.203 11.2062 429.88 11.9318 429.88 12.8186C429.88 13.6651 430.203 14.3907 430.808 14.955C431.414 15.5193 432.14 15.8015 433.028 15.8015C433.916 15.8015 434.683 15.479 435.248 14.955C435.853 14.3907 436.176 13.6651 436.176 12.8186C436.176 11.9721 435.853 11.2465 435.248 10.6418C434.723 10.0775 433.956 9.75501 433.028 9.75501V9.75501ZM454.215 18.986C453.246 18.7845 452.237 18.6635 451.269 18.6635C448.888 18.6635 446.709 19.1876 444.893 20.2356C443.077 21.2837 441.624 22.7349 440.696 24.5488C439.727 26.4031 439.243 28.5395 439.243 30.9984C439.243 33.1349 439.727 35.0294 440.655 36.7628C441.584 38.4558 442.875 39.8263 444.61 40.7535C446.265 41.6806 448.202 42.1643 450.381 42.1643C452.883 42.1643 455.022 41.6403 456.717 40.6728L456.757 40.6325V35.7953L456.556 35.9566C455.789 36.5209 454.901 37.0046 454.013 37.2868C453.085 37.6093 452.237 37.7705 451.511 37.7705C449.413 37.7705 447.758 37.1659 446.588 35.8356C445.377 34.5457 444.772 32.7721 444.772 30.555C444.772 28.2573 445.377 26.4434 446.628 25.1131C447.879 23.7829 449.534 23.0976 451.551 23.0976C453.246 23.0976 454.982 23.662 456.556 24.7907L456.757 24.9519V19.8325L456.717 19.7922C456.031 19.51 455.264 19.1876 454.215 18.986V18.986ZM471.528 18.8248C470.236 18.8248 469.026 19.2279 467.976 20.0744C467.088 20.8 466.483 21.848 465.959 23.0976H465.918V19.1876H460.672V41.5194H465.918V30.1116C465.918 28.1767 466.322 26.5643 467.21 25.3953C468.097 24.186 469.227 23.5814 470.599 23.5814C471.084 23.5814 471.568 23.7023 472.173 23.7829C472.738 23.9442 473.142 24.1054 473.424 24.3069L473.626 24.4682V19.2279L473.505 19.1876C473.142 18.9457 472.415 18.8248 471.528 18.8248V18.8248ZM485.814 18.7038C482.141 18.7038 479.195 19.7922 477.137 21.9287C475.039 24.0651 474.03 27.0077 474.03 30.7163C474.03 34.1829 475.079 37.0046 477.097 39.0604C479.115 41.0759 481.859 42.124 485.289 42.124C488.881 42.124 491.746 41.0356 493.804 38.8589C495.903 36.6821 496.912 33.7798 496.912 30.1922C496.912 26.6449 495.943 23.8232 493.966 21.7674C492.069 19.7116 489.284 18.7038 485.814 18.7038V18.7038ZM490.011 35.8759C489.042 37.1256 487.509 37.7302 485.612 37.7302C483.715 37.7302 482.182 37.1256 481.092 35.7953C480.002 34.5457 479.478 32.7318 479.478 30.4341C479.478 28.0558 480.043 26.2418 481.092 24.9519C482.182 23.662 483.675 23.017 485.572 23.017C487.428 23.017 488.881 23.6217 489.93 24.8713C490.979 26.1209 491.544 27.9349 491.544 30.3131C491.463 32.7318 491.02 34.6263 490.011 35.8759V35.8759ZM508.615 28.4589C506.96 27.7736 505.911 27.2496 505.427 26.8062C505.023 26.4031 504.821 25.8387 504.821 25.1131C504.821 24.5085 505.063 23.9038 505.669 23.5007C506.274 23.0976 506.96 22.8961 507.969 22.8961C508.857 22.8961 509.785 23.0573 510.673 23.2992C511.561 23.5411 512.368 23.9038 513.014 24.3876L513.215 24.5488V19.631L513.094 19.5907C512.489 19.3488 511.682 19.1069 510.713 18.9054C509.745 18.7442 508.857 18.6635 508.131 18.6635C505.628 18.6635 503.57 19.2682 501.956 20.5984C500.342 21.848 499.575 23.5411 499.575 25.5162C499.575 26.5643 499.736 27.4914 500.1 28.2573C500.463 29.0232 500.988 29.7488 501.714 30.3535C502.44 30.9178 503.49 31.5628 504.942 32.1674C506.153 32.6914 507.081 33.0945 507.646 33.417C508.211 33.7395 508.574 34.1023 508.857 34.3845C509.059 34.707 509.18 35.1101 509.18 35.6341C509.18 37.1256 508.05 37.8511 505.75 37.8511C504.862 37.8511 503.933 37.6899 502.844 37.3271C501.754 36.9643 500.745 36.4403 499.898 35.8356L499.696 35.6744V40.7938L499.817 40.8341C500.584 41.1969 501.512 41.4387 502.642 41.7209C503.772 41.9225 504.781 42.0837 505.669 42.0837C508.373 42.0837 510.592 41.479 512.166 40.1488C513.78 38.8589 514.628 37.2062 514.628 35.0697C514.628 33.5783 514.224 32.248 513.336 31.2403C512.166 30.2728 510.713 29.2651 508.615 28.4589V28.4589ZM528.47 18.7038C524.798 18.7038 521.852 19.7922 519.793 21.9287C517.735 24.0651 516.686 27.0077 516.686 30.7163C516.686 34.1829 517.735 37.0046 519.753 39.0604C521.771 41.0759 524.515 42.124 527.945 42.124C531.537 42.124 534.402 41.0356 536.46 38.8589C538.559 36.6821 539.568 33.7798 539.568 30.1922C539.568 26.6449 538.599 23.8232 536.622 21.7674C534.725 19.7116 531.941 18.7038 528.47 18.7038V18.7038ZM532.627 35.8759C531.658 37.1256 530.125 37.7302 528.228 37.7302C526.291 37.7302 524.798 37.1256 523.708 35.7953C522.618 34.5457 522.094 32.7318 522.094 30.4341C522.094 28.0558 522.659 26.2418 523.708 24.9519C524.798 23.662 526.291 23.017 528.187 23.017C530.003 23.017 531.497 23.6217 532.546 24.8713C533.595 26.1209 534.16 27.9349 534.16 30.3131C534.16 32.7318 533.635 34.6263 532.627 35.8759V35.8759ZM567.615 23.5007V19.1876H562.329V12.5767L562.167 12.617L557.163 14.1085L557.042 14.1488V19.1876H549.132V16.3659C549.132 15.0759 549.455 14.0682 550.02 13.4232C550.585 12.7783 551.432 12.4558 552.482 12.4558C553.208 12.4558 553.975 12.617 554.822 12.9798L555.024 13.1007V8.54571L554.903 8.5054C554.177 8.26354 553.208 8.10229 551.957 8.10229C550.383 8.10229 549.011 8.46509 547.76 9.06974C546.509 9.75501 545.581 10.6821 544.895 11.9318C544.209 13.1411 543.846 14.5116 543.846 16.0837V19.1876H540.173V23.4604H543.846V41.5194H549.132V23.5007H557.042V34.9891C557.042 39.7054 559.262 42.0837 563.701 42.0837C564.427 42.0837 565.194 41.9628 565.92 41.8418C566.687 41.6806 567.252 41.479 567.575 41.3178L567.615 41.2775V36.9643L567.413 37.1256C567.091 37.3271 566.808 37.4883 566.324 37.6093C565.92 37.7302 565.557 37.7705 565.275 37.7705C564.225 37.7705 563.499 37.5287 562.974 36.924C562.49 36.3597 562.248 35.4325 562.248 34.062V23.5007H567.615V23.5007Z" fill="#798092"/>
<path d="M323.906 0H348.644V24.7101H323.906V0Z" fill="#798092"/>
<path d="M351.226 0H375.965V24.7101H351.226V0Z" fill="#798092"/>
<path d="M323.906 27.2899H348.644V52H323.906V27.2899Z" fill="#798092"/>
<path d="M351.226 27.2899H375.965V52H351.226V27.2899Z" fill="#798092"/>
</g>
<g clip-path="url(#clip2_10_13)">
<path d="M841.196 31.7795L845.592 34.7103C844.165 36.812 840.752 40.4177 834.852 40.4177C827.525 40.4177 822.068 34.7489 822.068 27.5375C822.068 19.8633 827.583 14.6572 834.235 14.6572C840.926 14.6572 844.204 19.979 845.264 22.852L845.842 24.3174L828.605 31.4517C829.916 34.0355 831.96 35.3466 834.852 35.3466C837.744 35.3466 839.749 33.9198 841.196 31.7795ZM827.679 27.1326L839.19 22.3507C838.554 20.7503 836.664 19.6127 834.408 19.6127C831.535 19.6127 827.544 22.1579 827.679 27.1326Z" fill="#798092"/>
<path d="M813.758 1.52637H819.311V39.2416H813.758V1.52637Z" fill="#798092"/>
<path d="M805.004 15.6599H810.364V38.5667C810.364 48.0726 804.753 51.9868 798.12 51.9868C791.873 51.9868 788.113 47.7834 786.705 44.3705L791.622 42.3266C792.509 44.4283 794.649 46.9157 798.12 46.9157C802.381 46.9157 805.004 44.2741 805.004 39.3379V37.4869H804.811C803.538 39.0294 801.109 40.4177 798.024 40.4177C791.583 40.4177 785.683 34.8067 785.683 27.576C785.683 20.3068 791.583 14.6379 798.024 14.6379C801.089 14.6379 803.538 16.0069 804.811 17.5109H805.004V15.6599ZM805.389 27.576C805.389 23.0255 802.362 19.7091 798.506 19.7091C794.611 19.7091 791.333 23.0255 791.333 27.576C791.333 32.0687 794.611 35.3273 798.506 35.3273C802.362 35.3466 805.389 32.0687 805.389 27.576Z" fill="#798092"/>
<path d="M755.199 27.4796C755.199 34.9031 749.414 40.3599 742.318 40.3599C735.223 40.3599 729.438 34.8838 729.438 27.4796C729.438 20.0176 735.223 14.5801 742.318 14.5801C749.414 14.5801 755.199 20.0176 755.199 27.4796ZM749.568 27.4796C749.568 22.852 746.213 19.6705 742.318 19.6705C738.424 19.6705 735.069 22.852 735.069 27.4796C735.069 32.0687 738.424 35.2888 742.318 35.2888C746.213 35.2888 749.568 32.0687 749.568 27.4796Z" fill="#798092"/>
<path d="M783.331 27.5375C783.331 34.961 777.546 40.4177 770.451 40.4177C763.355 40.4177 757.57 34.961 757.57 27.5375C757.57 20.0754 763.355 14.6572 770.451 14.6572C777.546 14.6572 783.331 20.0561 783.331 27.5375ZM777.681 27.5375C777.681 22.9098 774.326 19.7283 770.431 19.7283C766.536 19.7283 763.181 22.9098 763.181 27.5375C763.181 32.1266 766.536 35.3466 770.431 35.3466C774.345 35.3466 777.681 32.1073 777.681 27.5375Z" fill="#798092"/>
<path d="M708.267 34.7682C700.188 34.7682 693.863 28.2509 693.863 20.1719C693.863 12.0928 700.188 5.57552 708.267 5.57552C712.624 5.57552 715.806 7.2916 718.158 9.48973L722.034 5.61408C718.756 2.47115 714.379 0.0802002 708.267 0.0802002C697.199 0.0802002 687.886 9.10409 687.886 20.1719C687.886 31.2396 697.199 40.2635 708.267 40.2635C714.244 40.2635 718.756 38.2968 722.285 34.6332C725.91 31.0082 727.028 25.9178 727.028 21.7915C727.028 20.4996 726.874 19.1692 726.7 18.1858H708.267V23.5462H721.398C721.012 26.9012 719.952 29.1957 718.39 30.7576C716.5 32.6665 713.511 34.7682 708.267 34.7682Z" fill="#798092"/>
</g>
<g clip-path="url(#clip3_10_13)">
<path d="M1053.59 13.0651C1053.59 14.9389 1052.09 16.4484 1050.22 16.4484C1048.36 16.4484 1046.85 14.9389 1046.85 13.0651C1046.85 11.1912 1048.31 9.68168 1050.22 9.68168C1052.14 9.73373 1053.59 11.2432 1053.59 13.0651ZM1039.7 19.8839C1039.7 20.1962 1039.7 20.7167 1039.7 20.7167C1039.7 20.7167 1038.09 18.6346 1034.67 18.6346C1029.02 18.6346 1024.61 22.955 1024.61 28.9409C1024.61 34.8749 1028.97 39.2472 1034.67 39.2472C1038.14 39.2472 1039.7 37.1131 1039.7 37.1131V37.998C1039.7 38.4144 1040.01 38.7267 1040.43 38.7267H1044.63V19.1552C1044.63 19.1552 1040.79 19.1552 1040.43 19.1552C1040.01 19.1552 1039.7 19.5195 1039.7 19.8839ZM1039.7 32.4284C1038.92 33.5736 1037.37 34.5626 1035.5 34.5626C1032.18 34.5626 1029.64 32.4805 1029.64 28.9409C1029.64 25.4014 1032.18 23.3193 1035.5 23.3193C1037.32 23.3193 1038.97 24.3604 1039.7 25.4535V32.4284ZM1047.74 19.1552H1052.71V38.7267H1047.74V19.1552ZM1122.08 18.6346C1118.66 18.6346 1117.05 20.7167 1117.05 20.7167V9.73373H1112.08V38.7267C1112.08 38.7267 1115.91 38.7267 1116.28 38.7267C1116.69 38.7267 1117 38.3624 1117 37.998V37.1131C1117 37.1131 1118.61 39.2472 1122.03 39.2472C1127.68 39.2472 1132.09 34.8749 1132.09 28.9409C1132.09 23.007 1127.68 18.6346 1122.08 18.6346ZM1121.25 34.5105C1119.33 34.5105 1117.83 33.5215 1117.05 32.3764V25.4014C1117.83 24.3604 1119.49 23.2673 1121.25 23.2673C1124.57 23.2673 1127.11 25.3493 1127.11 28.8889C1127.11 32.4284 1124.57 34.5105 1121.25 34.5105ZM1109.48 27.1191V38.7788H1104.51V27.6917C1104.51 24.4645 1103.47 23.1632 1100.67 23.1632C1099.17 23.1632 1097.61 23.9439 1096.63 25.0891V38.7267H1091.65V19.1552H1095.59C1096 19.1552 1096.32 19.5195 1096.32 19.8839V20.7167C1097.77 19.2072 1099.69 18.6346 1101.6 18.6346C1103.78 18.6346 1105.6 19.2593 1107.05 20.5085C1108.81 21.966 1109.48 23.8398 1109.48 27.1191ZM1079.57 18.6346C1076.15 18.6346 1074.54 20.7167 1074.54 20.7167V9.73373H1069.56V38.7267C1069.56 38.7267 1073.4 38.7267 1073.76 38.7267C1074.18 38.7267 1074.49 38.3624 1074.49 37.998V37.1131C1074.49 37.1131 1076.1 39.2472 1079.52 39.2472C1085.17 39.2472 1089.58 34.8749 1089.58 28.9409C1089.63 23.007 1085.22 18.6346 1079.57 18.6346ZM1078.74 34.5105C1076.82 34.5105 1075.32 33.5215 1074.54 32.3764V25.4014C1075.32 24.3604 1076.98 23.2673 1078.74 23.2673C1082.06 23.2673 1084.6 25.3493 1084.6 28.8889C1084.6 32.4284 1082.06 34.5105 1078.74 34.5105ZM1065.26 18.6346C1066.76 18.6346 1067.54 18.8949 1067.54 18.8949V23.5275C1067.54 23.5275 1063.39 22.1221 1060.8 25.0891V38.7788H1055.82V19.1552C1055.82 19.1552 1059.66 19.1552 1060.02 19.1552C1060.44 19.1552 1060.75 19.5195 1060.75 19.8839V20.7167C1061.68 19.6236 1063.7 18.6346 1065.26 18.6346ZM1013.57 36.957C1013.31 36.3323 1013.05 35.6557 1012.79 35.0831C1012.38 34.1461 1011.96 33.2613 1011.6 32.4284L1011.55 32.3764C1007.97 24.5686 1004.13 16.6567 1000.09 8.84885L999.935 8.53654C999.52 7.75576 999.105 6.92292 998.69 6.09009C998.172 5.15315 997.654 4.16416 996.824 3.22723C995.165 1.14515 992.78 0 990.24 0C987.647 0 985.314 1.14515 983.603 3.12312C982.826 4.06006 982.255 5.04905 981.737 5.98599C981.322 6.81882 980.907 7.65165 980.493 8.43243L980.337 8.74474C976.345 16.5526 972.457 24.4645 968.879 32.2723L968.827 32.3764C968.465 33.2092 968.05 34.0941 967.635 35.031C967.376 35.6036 967.117 36.2282 966.857 36.9049C966.183 38.8308 965.976 40.6527 966.235 42.5265C966.806 46.4304 969.398 49.7097 972.975 51.1672C974.323 51.7397 975.723 52 977.175 52C977.589 52 978.108 51.9479 978.523 51.8959C980.233 51.6877 981.996 51.1151 983.707 50.1261C985.833 48.9289 987.855 47.2112 990.136 44.7127C992.417 47.2112 994.491 48.9289 996.565 50.1261C998.276 51.1151 1000.04 51.6877 1001.75 51.8959C1002.16 51.9479 1002.68 52 1003.1 52C1004.55 52 1006 51.7397 1007.3 51.1672C1010.93 49.7097 1013.47 46.3784 1014.04 42.5265C1014.45 40.7047 1014.24 38.8829 1013.57 36.957ZM990.188 39.6637C987.388 36.1241 985.574 32.7928 984.951 29.982C984.692 28.7848 984.64 27.7437 984.796 26.8068C984.9 25.974 985.211 25.2452 985.625 24.6206C986.61 23.2152 988.27 22.3303 990.188 22.3303C992.106 22.3303 993.817 23.1632 994.75 24.6206C995.165 25.2452 995.476 25.974 995.58 26.8068C995.735 27.7437 995.683 28.8368 995.424 29.982C994.802 32.7407 992.987 36.0721 990.188 39.6637ZM1010.87 42.1101C1010.51 44.8168 1008.7 47.1592 1006.16 48.2002C1004.91 48.7207 1003.56 48.8769 1002.22 48.7207C1000.92 48.5646 999.624 48.1481 998.276 47.3674C996.409 46.3263 994.543 44.7127 992.365 42.3183C995.787 38.1021 997.861 34.2502 998.639 30.8148C999.002 29.2012 999.053 27.7437 998.898 26.3904C998.69 25.0891 998.224 23.8919 997.498 22.8509C995.891 20.5085 993.195 19.1552 990.188 19.1552C987.181 19.1552 984.485 20.5606 982.878 22.8509C982.152 23.8919 981.685 25.0891 981.478 26.3904C981.27 27.7437 981.322 29.2533 981.737 30.8148C982.515 34.2502 984.64 38.1542 988.01 42.3704C985.885 44.7648 983.966 46.3784 982.1 47.4194C980.752 48.2002 979.456 48.6166 978.16 48.7728C976.76 48.9289 975.412 48.7207 974.219 48.2522C971.679 47.2112 969.864 44.8689 969.501 42.1622C969.346 40.8609 969.45 39.5596 969.968 38.1021C970.124 37.5816 970.383 37.0611 970.642 36.4364C971.005 35.6036 971.42 34.7187 971.835 33.8338L971.886 33.7297C975.464 25.974 979.3 18.0621 983.292 10.3584L983.448 10.046C983.863 9.26526 984.277 8.43243 984.692 7.65165C985.107 6.81882 985.574 6.03804 986.144 5.36136C987.233 4.11211 988.684 3.43544 990.292 3.43544C991.899 3.43544 993.35 4.11211 994.439 5.36136C995.009 6.03804 995.476 6.81882 995.891 7.65165C996.306 8.43243 996.72 9.26526 997.135 10.046L997.291 10.3584C1001.23 18.1141 1005.07 26.026 1008.64 33.7818V33.8338C1009.06 34.6667 1009.42 35.6036 1009.84 36.4364C1010.1 37.0611 1010.36 37.5816 1010.51 38.1021C1010.93 39.4555 1011.08 40.7568 1010.87 42.1101Z" fill="#798092"/>
</g>
<defs>
<clipPath id="clip0_10_13">
<rect width="203.906" height="52" fill="white"/>
</clipPath>
<clipPath id="clip1_10_13">
<rect width="243.75" height="52" fill="white" transform="translate(323.906)"/>
</clipPath>
<clipPath id="clip2_10_13">
<rect width="158.476" height="52" fill="white" transform="translate(687.656)"/>
</clipPath>
<clipPath id="clip3_10_13">
<rect width="165.957" height="52" fill="white" transform="translate(966.132)"/>
</clipPath>
</defs>
</svg>
